<?xml version="1.0" encoding="UTF-8" standalone="no"?>
<svg width="21px" height="20px" viewBox="0 0 21 20" version="1.1" xmlns="http://www.w3.org/2000/svg" xmlns:xlink="http://www.w3.org/1999/xlink">
    <!-- Generator: sketchtool 3.6.1 (26313) - http://www.bohemiancoding.com/sketch -->
    <title>sp_bubble</title>
    <desc>Created with sketchtool.</desc>
    <defs></defs>
    <g id="Man-esi-tu" stroke="none" stroke-width="1" fill="none" fill-rule="evenodd">
        <g id="Post-list" transform="translate(-312.000000, -205.000000)" fill="#000000">
            <g id="Group-2" transform="translate(0.000000, 178.000000)">
                <g id="sp_bubble" transform="translate(312.000000, 27.000000)">
                    <g id="Capa_1">
                        <g id="Group">
                            <path d="M20.5366452,16.3726667 L19.3179677,13.0966667 C19.7027419,12.0393333 19.8978387,10.93 19.8978387,9.792 C19.8991935,4.39266667 15.4356774,0 9.94993548,0 C4.46351613,0 0,4.39266667 0,9.792 C0,15.1913333 4.46351613,19.584 9.94993548,19.584 C11.9354516,19.584 13.8870968,18.988 15.527129,17.896 L17.9732903,18.8386667 C18.2869355,18.96 18.5958387,19.0213333 18.8905161,19.0213333 C19.5022258,19.0213333 20.0441613,18.7533333 20.3754194,18.2853333 C20.5901613,17.986 20.895,17.3366667 20.5366452,16.3726667 L20.5366452,16.3726667 Z M18.891871,17.688 C18.7706129,17.688 18.6283548,17.6586667 18.4691613,17.596 L15.3266129,16.386 C13.8539032,17.55 11.9862581,18.2506667 9.94993548,18.2506667 C5.20258065,18.25 1.35483871,14.4633333 1.35483871,9.792 C1.35483871,5.12066667 5.20258065,1.33333333 9.94993548,1.33333333 C14.6966129,1.33333333 18.5450323,5.12 18.5450323,9.792 C18.5450323,10.9586667 18.3052258,12.07 17.871,13.0813333 L19.2658065,16.8313333 C19.4622581,17.3613333 19.2956129,17.688 18.891871,17.688 L18.891871,17.688 Z" id="Shape"></path>
                        </g>
                    </g>
                </g>
            </g>
        </g>
    </g>
</svg>