<?xml version="1.0" encoding="UTF-8" standalone="no"?>
<svg width="21px" height="21px" viewBox="0 0 21 21" version="1.1" xmlns="http://www.w3.org/2000/svg" xmlns:xlink="http://www.w3.org/1999/xlink">
    <!-- Generator: sketchtool 3.6.1 (26313) - http://www.bohemiancoding.com/sketch -->
    <title>clock</title>
    <desc>Created with sketchtool.</desc>
    <defs></defs>
    <g id="Man-esi-tu" stroke="none" stroke-width="1" fill="none" fill-rule="evenodd">
        <g id="Post-list" transform="translate(-219.000000, -204.000000)" fill="#000000">
            <g id="Group-2" transform="translate(0.000000, 178.000000)">
                <g id="clock" transform="translate(219.000000, 26.000000)">
                    <g id="Shape">
                        <path d="M10.5,0 C4.70113636,0 0,4.70113636 0,10.5 C0,16.2991023 4.70113636,21 10.5,21 C16.2991023,21 21,16.2991023 21,10.5 C21,4.70113636 16.2991023,0 10.5,0 L10.5,0 Z M10.5,19.0909091 C5.75543182,19.0909091 1.90909091,15.2445682 1.90909091,10.5 C1.90909091,5.75543182 5.75543182,1.90909091 10.5,1.90909091 C15.2445682,1.90909091 19.0909091,5.75543182 19.0909091,10.5 C19.0909091,15.2445682 15.2445682,19.0909091 10.5,19.0909091 L10.5,19.0909091 Z"></path>
                        <path d="M11.4545455,10.1045795 L11.4545455,4.77272727 C11.4545455,4.24557955 11.0271477,3.81818182 10.5,3.81818182 C9.97285227,3.81818182 9.54545455,4.24557955 9.54545455,4.77272727 L9.54545455,10.5 C9.54545455,10.5021477 9.54617045,10.5042955 9.54617045,10.5064432 C9.54640909,10.5668182 9.552375,10.6271932 9.56430682,10.6866136 C9.57003409,10.7159659 9.58077273,10.7424545 9.589125,10.7710909 C9.59843182,10.8025909 9.60559091,10.8345682 9.61823864,10.8653523 C9.63207955,10.8982841 9.65069318,10.9283523 9.667875,10.959375 C9.68076136,10.9832386 9.69102273,11.0071023 9.70605682,11.0297727 C9.74113636,11.0825114 9.78098864,11.1319091 9.82561364,11.1760568 L12.5248295,13.8755114 C12.8975795,14.2482614 13.5025227,14.2482614 13.8750341,13.8755114 C14.2477841,13.5027614 14.2477841,12.8978182 13.8750341,12.5257841 L11.4545455,10.1045795 L11.4545455,10.1045795 Z"></path>
                    </g>
                </g>
            </g>
        </g>
    </g>
</svg>