<?xml version="1.0" encoding="UTF-8" standalone="no"?>
<svg width="64px" height="64px" viewBox="0 0 64 64" version="1.1" xmlns="http://www.w3.org/2000/svg" xmlns:xlink="http://www.w3.org/1999/xlink">
    <!-- Generator: sketchtool 3.6.1 (26313) - http://www.bohemiancoding.com/sketch -->
    <title>issigandes</title>
    <desc>Created with sketchtool.</desc>
    <defs></defs>
    <g id="Man-esi-tu" stroke="none" stroke-width="1" fill="none" fill-rule="evenodd">
        <g id="Emotions" transform="translate(-326.000000, -353.000000)" fill="#2E409F">
            <g id="issigandes" transform="translate(326.000000, 353.000000)">
                <g id="Capa_1">
                    <path d="M54.1571589,54.1559626 C66.5306916,41.7836262 66.5294953,21.6523364 54.1583551,9.28179439 C41.7842243,-3.09353271 21.6517383,-3.09353271 9.28059813,9.27880374 C-3.09413084,21.6511402 -3.09293458,41.7842243 9.28179439,54.1589533 C21.6517383,66.5300935 41.7842243,66.5300935 54.1571589,54.1559626 L54.1571589,54.1559626 Z M12.7413832,12.7401869 C23.204486,2.27708411 40.2314766,2.27588785 50.696972,12.7413832 C61.1606729,23.2050841 61.1594766,40.2326729 50.6957757,50.6957757 C40.2326729,61.1594766 23.204486,61.1606729 12.7413832,50.696972 C2.27528972,40.2320748 2.27708411,23.2038879 12.7413832,12.7401869 L12.7413832,12.7401869 Z M19.7197757,24.183028 L20.7718879,23.1309159 L19.7191776,22.0770093 C18.9816822,21.3401121 18.944,20.1456449 19.6336449,19.3591028 C19.6485981,19.3381682 19.6802991,19.3010841 19.7155888,19.2657944 C20.4794019,18.5013832 21.7851215,18.5055701 22.5375701,19.2586168 L23.5902804,20.310729 L24.6429907,19.2580187 C25.3595514,18.5408598 26.5970841,18.5031776 27.3608972,19.1712897 C27.3854206,19.1886355 27.4242991,19.222729 27.460785,19.2586168 C27.8370093,19.6348411 28.0445607,20.1348785 28.0451589,20.6666168 C28.0451589,21.1989533 27.8382056,21.6995888 27.4613832,22.075215 L26.4086729,23.1285234 L27.4601869,24.1806355 C27.8370093,24.5568598 28.0445607,25.0574953 28.0445607,25.5886355 C28.0445607,26.1215701 27.8376075,26.6222056 27.460785,26.9984299 C26.7083364,27.7520748 25.3960374,27.7526729 24.6423925,26.9984299 L23.5908785,25.9469159 L22.5393645,26.9984299 C22.1619439,27.3752523 21.6619065,27.5828037 21.1301682,27.5828037 C20.5978318,27.5828037 20.0971963,27.3752523 19.720972,26.9984299 C18.9434019,26.2244486 18.9434019,24.96 19.7197757,24.183028 L19.7197757,24.183028 Z M36.5374206,24.1734579 L37.5895327,23.1213458 L36.5368224,22.0680374 C35.7999252,21.3305421 35.7616449,20.1366729 36.4512897,19.3501308 C36.4656449,19.3291963 36.4979439,19.2921121 36.5332336,19.2562243 C37.2970467,18.4924112 38.6027664,18.4965981 39.355215,19.2496449 L40.4079252,20.301757 L41.4612336,19.2490467 C42.1771963,18.5318879 43.4153271,18.4942056 44.1791402,19.1617196 C44.2036636,19.1796636 44.2419439,19.2131589 44.279028,19.2490467 C44.6552523,19.625271 44.8628037,20.1253084 44.8634019,20.6570467 C44.8634019,21.1899813 44.6564486,21.6906168 44.2796262,22.066243 L43.2269159,23.1189533 L44.2784299,24.1710654 C44.6552523,24.5478879 44.8628037,25.0485234 44.8628037,25.5796636 C44.8628037,26.112 44.6558505,26.6126355 44.279028,26.9888598 C43.5265794,27.7431028 42.2142804,27.7437009 41.4606355,26.9888598 L40.4085234,25.9373458 L39.3570093,26.9900561 C38.9795888,27.3674766 38.4795514,27.575028 37.9484112,27.575028 C37.4154766,27.575028 36.9148411,27.3674766 36.539215,26.9900561 C35.7604486,26.2154766 35.7604486,24.9516262 36.5374206,24.1734579 L36.5374206,24.1734579 Z M18.0497944,44.073271 L18.0497944,41.6179439 C18.0497944,41.2877757 18.317757,41.0198131 18.6479252,41.0198131 C19.4063551,41.0198131 20.9262056,40.4360374 21.5811589,39.5220935 C21.6936075,39.3653832 21.8748411,39.2726729 22.0674393,39.2726729 L22.0680374,39.2726729 C22.2612336,39.2726729 22.4418692,39.3659813 22.5543178,39.5232897 C23.2236262,40.4605607 24.3182056,41.0204112 25.4821682,41.0204112 C26.6479252,41.0204112 27.7425047,40.4605607 28.4106168,39.5238879 C28.5230654,39.3665794 28.7037009,39.273271 28.8968972,39.273271 L28.8974953,39.273271 C29.0900935,39.273271 29.2713271,39.3659813 29.3837757,39.5226916 C30.0560748,40.4605607 31.1524486,41.0204112 32.3158131,41.0204112 C33.480972,41.0204112 34.5761495,40.4605607 35.2466542,39.5232897 C35.4709533,39.2098692 35.9949159,39.2098692 36.2198131,39.5232897 C36.8903178,40.4605607 37.9854953,41.0204112 39.1494579,41.0204112 C40.3146168,41.0204112 41.4097944,40.4605607 42.0802991,39.5232897 C42.1927477,39.3665794 42.372785,39.273271 42.5659813,39.273271 L42.5659813,39.273271 C42.7585794,39.273271 42.9398131,39.3659813 43.0522617,39.5226916 C43.707215,40.4372336 45.2258692,41.0204112 45.9825047,41.0204112 C46.3126729,41.0204112 46.5806355,41.2883738 46.5806355,41.6185421 L46.5806355,44.073271 C46.5806355,44.4034393 46.3126729,44.6714019 45.9825047,44.6714019 C44.9860187,44.6714019 43.5319626,44.1133458 42.5803364,43.2352897 C41.6879252,44.1450467 40.4497944,44.6714019 39.1476636,44.6714019 C37.8533084,44.6714019 36.6223551,44.1504299 35.7311402,43.2508411 C34.8399252,44.1504299 33.608972,44.6714019 32.3140187,44.6714019 C31.0202617,44.6714019 29.7887103,44.1504299 28.8962991,43.2508411 C28.0062804,44.1504299 26.7753271,44.6714019 25.4797757,44.6714019 C24.178243,44.6714019 22.9413084,44.1450467 22.0494953,43.2352897 C21.097271,44.1139439 19.6426168,44.6714019 18.6455327,44.6714019 C18.317757,44.6714019 18.0497944,44.4034393 18.0497944,44.073271 L18.0497944,44.073271 Z" id="Shape"></path>
                </g>
            </g>
        </g>
    </g>
</svg>