<?xml version="1.0" encoding="UTF-8" standalone="no"?>
<svg width="64px" height="64px" viewBox="0 0 64 64" version="1.1" xmlns="http://www.w3.org/2000/svg" xmlns:xlink="http://www.w3.org/1999/xlink">
    <!-- Generator: sketchtool 3.6.1 (26313) - http://www.bohemiancoding.com/sketch -->
    <title>liudnas</title>
    <desc>Created with sketchtool.</desc>
    <defs></defs>
    <g id="Man-esi-tu" stroke="none" stroke-width="1" fill="none" fill-rule="evenodd">
        <g id="Emotions" transform="translate(-140.000000, -354.000000)" fill="#5872F0">
            <g id="liudnas" transform="translate(140.000000, 354.000000)">
                <g id="Capa_1">
                    <path d="M31.7182804,0.000598130841 C23.5914766,0.000598130841 15.465271,3.09293458 9.27940187,9.27880374 C-3.09413084,21.6523364 -3.09293458,41.7842243 9.28059813,54.1583551 C15.4658692,60.3448224 23.5920748,63.4371589 31.7182804,63.4371589 C39.844486,63.4371589 47.9706916,60.3436262 54.1583551,54.1547664 C66.5312897,41.783028 66.5300935,21.6529346 54.1595514,9.28179439 C47.9712897,3.09413084 39.844486,0.000598130841 31.7182804,0.000598130841 L31.7182804,0.000598130841 Z M50.6963738,50.6957757 C45.4639252,55.9282243 38.5914019,58.5438505 31.7182804,58.5450467 C24.845757,58.5450467 17.9732336,55.9294206 12.740785,50.6981682 C11.4320748,49.3894579 10.2878505,47.9784673 9.30691589,46.491514 C2.43917757,36.0774579 3.58459813,21.896972 12.740785,12.7401869 C17.9732336,7.50833645 24.845757,4.89271028 31.7182804,4.89271028 C38.5908037,4.89271028 45.4633271,7.50833645 50.6963738,12.740785 C61.161271,23.2050841 61.1600748,40.2326729 50.6963738,50.6957757 L50.6963738,50.6957757 Z M14.7666542,31.2900187 C14.0417196,30.6123364 14.0046355,29.4758879 14.6817196,28.7503551 C15.3588037,28.0248224 16.4868785,27.9781682 17.2219813,28.6648224 C19.1665047,30.4909159 21.1630654,28.8095701 21.3843738,28.6121869 C22.0453084,28.0200374 23.0238505,28.0068785 23.6973458,28.5410093 C23.7768972,28.603215 23.8522617,28.6743925 23.922243,28.7527477 C24.5837757,29.4920374 24.520972,30.6278879 23.7816822,31.2900187 C22.1882617,32.7165607 18.2740935,34.5707664 14.7666542,31.2900187 L14.7666542,31.2900187 Z M48.7488598,28.7318131 C49.4097944,29.4711028 49.3475888,30.6069533 48.6082991,31.2690841 C47.0148785,32.6956262 43.1007103,34.5492336 39.593271,31.2690841 C38.8683364,30.5914019 38.8318505,29.4549533 39.5083364,28.7294206 C40.1848224,28.0038879 41.3134953,27.9572336 42.0485981,28.6438879 C43.9931215,30.4699813 45.9896822,28.7886355 46.2109907,28.5912523 C46.8713271,27.9991028 47.8504673,27.9859439 48.5239626,28.5200748 C48.603514,28.5822804 48.6782804,28.6534579 48.7488598,28.7318131 L48.7488598,28.7318131 Z M46.066243,47.451514 C46.4598131,48.361271 46.0417196,49.4175701 45.1313645,49.8111402 C44.2222056,50.2059065 43.1671028,49.7866168 42.7735327,48.8762617 C41.0419439,44.8759626 36.9531215,42.2890467 32.3528972,42.2890467 C27.6474019,42.2890467 23.5328598,44.872972 21.8718505,48.8726729 C21.5853458,49.5611215 20.9172336,49.979215 20.2144299,49.979215 C19.9853458,49.979215 19.7520748,49.9355514 19.5271776,49.842243 C18.6120374,49.4612336 18.1783925,48.4109159 18.5582056,47.4963738 C20.7778692,42.153271 26.1927477,38.7020561 32.3534953,38.7020561 C38.3850467,38.7014579 43.7682243,42.1359252 46.066243,47.451514 L46.066243,47.451514 Z" id="Shape"></path>
                </g>
            </g>
        </g>
    </g>
</svg>