<?xml version="1.0" encoding="UTF-8" standalone="no"?>
<svg width="21px" height="20px" viewBox="0 0 21 20" version="1.1" xmlns="http://www.w3.org/2000/svg" xmlns:xlink="http://www.w3.org/1999/xlink">
    <!-- Generator: sketchtool 3.6.1 (26313) - http://www.bohemiancoding.com/sketch -->
    <title>username</title>
    <desc>Created with sketchtool.</desc>
    <defs></defs>
    <g id="Man-esi-tu" stroke="none" stroke-width="1" fill="none" fill-rule="evenodd" opacity="0.6">
        <g id="Register" transform="translate(-28.000000, -196.000000)" stroke="#030303" stroke-width="2">
            <g id="name" transform="translate(1.000000, 193.329675)">
                <g transform="translate(25.015305, 0.467703)" id="username">
                    <g transform="translate(2.501530, 2.501530)">
                        <path d="M10.0061219,11.3124767 C6.62905578,11.3124767 0,12.9559736 0,16.3693901 L0,18.8978468 L20.0122439,18.8978468 L20.0122439,16.3693901 C20.0122439,12.9559736 13.3831881,11.3124767 10.0061219,11.3124767 L10.0061219,11.3124767 Z M10.0061219,9.33904714 C12.4826371,9.33904714 14.5088768,7.34094967 14.5088768,4.89883053 C14.5088768,2.4567114 12.4826371,0.458613922 10.0061219,0.458613922 C7.52960676,0.458613922 5.50336707,2.4567114 5.50336707,4.89883053 C5.50336707,7.34094967 7.52960676,9.33904714 10.0061219,9.33904714 L10.0061219,9.33904714 Z" id="name"></path>
                    </g>
                </g>
            </g>
        </g>
    </g>
</svg>