<?xml version="1.0" encoding="UTF-8" standalone="no"?>
<svg width="64px" height="65px" viewBox="0 0 64 65" version="1.1" xmlns="http://www.w3.org/2000/svg" xmlns:xlink="http://www.w3.org/1999/xlink">
    <!-- Generator: sketchtool 3.6.1 (26313) - http://www.bohemiancoding.com/sketch -->
    <title>padekit</title>
    <desc>Created with sketchtool.</desc>
    <defs></defs>
    <g id="Man-esi-tu" stroke="none" stroke-width="1" fill="none" fill-rule="evenodd">
        <g id="Emotions" transform="translate(-46.000000, -353.000000)" fill="#F55921">
            <g id="padekit" transform="translate(46.000000, 353.000000)">
                <g id="Capa_1">
                    <path d="M9.28,9.87573832 C-3.09413084,22.249271 -3.09293458,42.381757 9.28119626,54.7558879 C21.6517383,67.1288224 41.7842243,67.1288224 54.1571589,54.7528972 C66.5306916,42.3811589 66.5294953,22.2504673 54.1583551,9.8793271 C41.7842243,-2.49540187 21.6517383,-2.49540187 9.28,9.87573832 L9.28,9.87573832 Z M50.6957757,51.2933084 C40.2320748,61.7564112 23.2056822,61.7576075 12.7413832,51.2951028 C2.27528972,40.8290093 2.27648598,23.8008224 12.7413832,13.3371215 C23.2050841,2.87461682 40.2308785,2.87342056 50.696972,13.3389159 C61.1606729,23.8020187 61.1594766,40.8296075 50.6957757,51.2933084 L50.6957757,51.2933084 Z M32.3522991,36.109757 C38.3838505,36.109757 43.767028,39.5442243 46.066243,44.8598131 C46.4598131,45.7695701 46.0411215,46.8258692 45.1319626,47.2194393 C44.2222056,47.6136075 43.1665047,47.1943178 42.7729346,46.2845607 C41.0425421,42.2842617 36.9531215,39.6979439 32.3528972,39.6979439 C27.6468037,39.6979439 23.5322617,42.2818692 21.8724486,46.2803738 C21.5859439,46.9700187 20.9178318,47.3869159 20.215028,47.3881121 C19.9853458,47.3881121 19.7526729,47.3438505 19.5271776,47.2505421 C18.6120374,46.8695327 18.1783925,45.819215 18.5582056,44.9046729 C20.7760748,39.560972 26.1909533,36.109757 32.3522991,36.109757 L32.3522991,36.109757 Z M17.9708411,20.6187664 C17.3117009,20.5751028 16.8128598,20.0050841 16.8565234,19.3459439 C16.9001869,18.6874019 17.4606355,18.1867664 18.1275514,18.2316262 C18.1795888,18.235215 23.318729,18.5294953 25.2512897,15.8642243 C25.6388785,15.3282991 26.3877383,15.2110654 26.9218692,15.5980561 C27.4565981,15.9856449 27.5756262,16.7339065 27.1880374,17.2686355 C24.964785,20.3340561 20.3687477,20.6373084 18.6395514,20.6373084 C18.2597383,20.6373084 18.0186916,20.6229533 17.9708411,20.6187664 L17.9708411,20.6187664 Z M27.300486,24.9229159 C27.300486,25.7094579 27.0540561,26.4379813 26.6365607,27.0385047 C25.9624673,26.112 24.8726729,25.5066916 23.6393271,25.5066916 C22.3784673,25.5066916 21.2647477,26.1389159 20.5948411,27.1013084 C20.1498318,26.4894206 19.8836636,25.7381682 19.8836636,24.9223178 C19.8836636,22.8743178 21.5446729,21.2133084 23.5920748,21.2133084 C25.6394766,21.2133084 27.300486,22.8749159 27.300486,24.9229159 L27.300486,24.9229159 Z M36.8203364,17.2465047 C36.4333458,16.7117757 36.5523738,15.963514 37.0865047,15.5759252 C37.6218318,15.1895327 38.3700935,15.3067664 38.7570841,15.8420935 C40.6896449,18.5073645 45.828785,18.2130841 45.8808224,18.2094953 C46.5483364,18.1652336 47.1081869,18.6658692 47.1518505,19.3238131 C47.195514,19.9829533 46.6966729,20.552972 46.0375327,20.5966355 C45.9896822,20.6002243 45.7492336,20.6145794 45.3682243,20.6145794 C43.6396262,20.6151776 39.0435888,20.3119252 36.8203364,17.2465047 L36.8203364,17.2465047 Z M40.4168972,21.1911776 C42.4642991,21.1911776 44.1253084,22.8521869 44.1253084,24.9001869 C44.1253084,25.7154393 43.8591402,26.4666916 43.4141308,27.0791776 C42.7442243,26.116785 41.6311028,25.4845607 40.3696449,25.4845607 C39.1362991,25.4845607 38.0465047,26.0898692 37.3724112,27.0163738 C36.9549159,26.4158505 36.708486,25.6873271 36.708486,24.900785 C36.708486,22.8533832 38.3694953,21.1911776 40.4168972,21.1911776 L40.4168972,21.1911776 Z M19.8555514,36.3615701 C17.7022804,36.3615701 17.7022804,33.9726355 17.7022804,33.9726355 C17.7028785,31.9174579 20.4267664,29.4657196 20.4267664,29.4657196 C20.6887477,31.108785 21.3359252,32.064 21.3359252,32.064 C22.0644486,33.1514019 22.0644486,34.162243 22.0644486,34.162243 C22.0644486,36.3819065 19.8555514,36.3615701 19.8555514,36.3615701 L19.8555514,36.3615701 Z" id="Shape"></path>
                </g>
            </g>
        </g>
    </g>
</svg>