<?xml version="1.0" encoding="UTF-8" standalone="no"?>
<svg width="64px" height="64px" viewBox="0 0 64 64" version="1.1" xmlns="http://www.w3.org/2000/svg" xmlns:xlink="http://www.w3.org/1999/xlink">
    <!-- Generator: sketchtool 3.6.1 (26313) - http://www.bohemiancoding.com/sketch -->
    <title>pavarges</title>
    <desc>Created with sketchtool.</desc>
    <defs></defs>
    <g id="Man-esi-tu" stroke="none" stroke-width="1" fill="none" fill-rule="evenodd">
        <g id="Emotions" transform="translate(-235.000000, -353.000000)" fill="#475DD0">
            <g id="pavarges" transform="translate(235.000000, 353.000000)">
                <g id="Capa_1">
                    <path d="M9.28059813,54.1589533 C15.4658692,60.3448224 23.5920748,63.437757 31.7182804,63.4371589 C39.844486,63.4365607 47.9706916,60.343028 54.1583551,54.1559626 C66.5312897,41.7842243 66.5300935,21.6529346 54.1595514,9.28179439 C47.9712897,3.09472897 39.844486,0.000598130841 31.7182804,0.000598130841 C23.5914766,0.000598130841 15.465271,3.09293458 9.27940187,9.27940187 C-3.09413084,21.6517383 -3.09293458,41.7842243 9.28059813,54.1589533 L9.28059813,54.1589533 Z M12.740785,12.7401869 C17.9732336,7.50833645 24.845757,4.89271028 31.7182804,4.89271028 C38.5908037,4.89271028 45.4633271,7.50893458 50.6963738,12.7419813 C61.1600748,23.2056822 61.1588785,40.233271 50.6951776,50.6963738 C45.4633271,55.9276262 38.5908037,58.5438505 31.7176822,58.5444486 C24.8445607,58.5450467 17.9726355,55.9294206 12.7401869,50.6975701 C11.4314766,49.3894579 10.2872523,47.9784673 9.30631776,46.491514 C2.43917757,36.0774579 3.58459813,21.8963738 12.740785,12.7401869 L12.740785,12.7401869 Z M24.3092336,48.1806355 L39.1297196,48.1806355 C39.8725981,48.1806355 40.4767103,49.1119252 40.4767103,50.2615327 C40.4767103,51.4099439 39.8725981,52.3418318 39.1297196,52.3418318 L24.3092336,52.3418318 C23.5651589,52.3418318 22.9616449,51.4099439 22.9616449,50.2615327 C22.9616449,49.1113271 23.5651589,48.1806355 24.3092336,48.1806355 L24.3092336,48.1806355 Z M14.7666542,31.2906168 C14.0417196,30.6123364 14.0046355,29.4752897 14.6817196,28.7503551 C15.3588037,28.0248224 16.4868785,27.9781682 17.2219813,28.6648224 C19.1665047,30.4903178 21.1630654,28.808972 21.3843738,28.6115888 C22.0453084,28.0194393 23.0238505,28.0068785 23.6973458,28.5404112 C23.7768972,28.603215 23.8522617,28.6743925 23.922243,28.7521495 C24.5837757,29.4914393 24.520972,30.6278879 23.7816822,31.2906168 C22.1882617,32.7165607 18.2740935,34.5701682 14.7666542,31.2906168 L14.7666542,31.2906168 Z M39.5920748,31.2696822 C38.8671402,30.5914019 38.8306542,29.4543551 39.5071402,28.7294206 C40.1842243,28.0038879 41.3122991,27.9572336 42.0474019,28.6438879 C43.9919252,30.4693832 45.988486,28.7880374 46.2097944,28.5906542 C46.8701308,27.9985047 47.849271,27.9859439 48.5227664,28.5194766 C48.6023178,28.5822804 48.6776822,28.6534579 48.7476636,28.731215 C49.4085981,29.4705047 49.3463925,30.6069533 48.6071028,31.2696822 C47.0142804,32.6956262 43.1001121,34.5492336 39.5920748,31.2696822 L39.5920748,31.2696822 Z" id="Shape"></path>
                </g>
            </g>
        </g>
    </g>
</svg>