<?xml version="1.0" encoding="UTF-8" standalone="no"?>
<svg width="64px" height="64px" viewBox="0 0 64 64" version="1.1" xmlns="http://www.w3.org/2000/svg" xmlns:xlink="http://www.w3.org/1999/xlink">
    <!-- Generator: sketchtool 3.6.1 (26313) - http://www.bohemiancoding.com/sketch -->
    <title>susierzines</title>
    <desc>Created with sketchtool.</desc>
    <defs></defs>
    <g id="Man-esi-tu" stroke="none" stroke-width="1" fill="none" fill-rule="evenodd">
        <g id="Emotions-post" transform="translate(-236.000000, -263.000000)" fill="#13205D">
            <path d="M290.158355,272.281869 C277.784224,259.906542 257.65114,259.906542 245.28,272.278879 C232.905869,284.651215 232.907065,304.784299 245.281196,317.159028 C257.651738,329.530766 277.784224,329.530766 290.157159,317.156636 C302.530093,304.784299 302.529495,284.652411 290.158355,272.281869 L290.158355,272.281869 Z M286.695776,313.696449 C276.232075,324.16015 259.205084,324.161346 248.741383,313.697645 C238.27529,303.23215 238.276486,286.203963 248.741383,275.740262 C259.204486,265.277159 276.230879,265.275963 286.696972,275.741458 C297.160673,286.205159 297.159477,303.233346 286.695776,313.696449 L286.695776,313.696449 Z M281.242019,305.48471 C281.242019,306.63372 280.310131,307.565608 279.161122,307.565608 L256.277832,307.565608 C255.128822,307.565608 254.196935,306.63372 254.196935,305.48471 C254.196935,304.335701 255.128822,303.404411 256.277832,303.404411 L279.16172,303.404411 C280.310131,303.405009 281.242019,304.335701 281.242019,305.48471 L281.242019,305.48471 Z M256.07686,287.733383 L252.977346,284.633869 C252.242243,283.898766 252.242243,282.706093 252.977346,281.971589 C253.712449,281.236486 254.904523,281.236486 255.639626,281.971589 L261.295551,287.626916 C261.303925,287.63529 261.309308,287.64486 261.317682,287.653832 C262.012112,288.327925 262.445159,289.269981 262.445159,290.313122 C262.445159,292.362916 260.78415,294.023327 258.736748,294.023327 C256.689346,294.023327 255.027738,292.362916 255.027738,290.313122 C255.027738,289.310056 255.429084,288.401495 256.07686,287.733383 L256.07686,287.733383 Z M282.458617,281.972187 C283.19372,282.70729 283.19372,283.899365 282.458617,284.634467 L279.359103,287.733981 C280.006879,288.402093 280.408224,289.311252 280.408224,290.314916 C280.408224,292.364112 278.747215,294.024523 276.699215,294.024523 C274.651813,294.024523 272.990804,292.364112 272.990804,290.314916 C272.990804,289.271178 273.424449,288.329122 274.118879,287.655028 C274.127252,287.646056 274.131439,287.636486 274.140411,287.628112 L279.796336,281.972785 C280.531439,281.236486 281.723514,281.236486 282.458617,281.972187 L282.458617,281.972187 Z" id="susierzines"></path>
        </g>
    </g>
</svg>