<?xml version="1.0" encoding="UTF-8" standalone="no"?>
<svg width="64px" height="64px" viewBox="0 0 64 64" version="1.1" xmlns="http://www.w3.org/2000/svg" xmlns:xlink="http://www.w3.org/1999/xlink">
    <!-- Generator: sketchtool 3.6.1 (26313) - http://www.bohemiancoding.com/sketch -->
    <title>sutrikes</title>
    <desc>Created with sketchtool.</desc>
    <defs></defs>
    <g id="Man-esi-tu" stroke="none" stroke-width="1" fill="none" fill-rule="evenodd">
        <g id="Emotions-post" transform="translate(-234.000000, -184.000000)" fill="#1F2F7D">
            <path d="M288.158953,193.281794 C275.784822,180.906467 255.652336,180.906467 243.280598,193.278804 C230.906467,205.651738 230.907664,225.783626 243.281794,238.158953 C255.652336,250.53129 275.784822,250.53129 288.157757,238.155963 C300.530692,225.783626 300.529495,205.652935 288.158953,193.281794 L288.158953,193.281794 Z M284.696374,234.696374 C274.232673,245.159477 257.205682,245.160673 246.741383,234.698168 C236.27529,224.232075 236.277084,207.203888 246.741383,196.740187 C257.205682,186.277682 274.231477,186.276486 284.69757,196.741981 C295.161271,207.205084 295.160075,224.232673 284.696374,234.696374 L284.696374,234.696374 Z M282.181234,207.131514 C282.181234,208.170467 281.339664,209.013234 280.299514,209.013234 L277.319626,209.013234 C276.674243,210.105421 275.48815,210.840523 274.129196,210.840523 C272.081794,210.840523 270.420187,209.181907 270.418991,207.133308 L270.418991,207.132112 C270.418991,207.132112 270.418991,207.132112 270.418991,207.131514 L270.418991,207.130916 C270.418991,205.082916 272.081196,203.422505 274.129196,203.422505 C275.488748,203.422505 276.674841,204.157607 277.320224,205.250393 L280.299514,205.250393 C281.339664,205.248598 282.181234,206.091364 282.181234,207.131514 L282.181234,207.131514 Z M254.118729,209.012636 L251.138243,209.012636 C250.098692,209.012636 249.255925,208.169869 249.255925,207.130916 C249.255925,206.091364 250.098692,205.248598 251.138243,205.248598 L254.118729,205.248598 C254.764112,204.156411 255.950804,203.421308 257.309757,203.421308 C259.357757,203.421308 261.018766,205.08172 261.018766,207.12972 L261.018766,207.130318 L261.018766,207.130916 L261.018766,207.132112 C261.016972,209.18071 259.357159,210.839327 257.309757,210.839327 C255.950804,210.839925 254.765308,210.105421 254.118729,209.012636 L254.118729,209.012636 Z M279.678056,226.99843 C279.44957,227.485907 277.325607,231.777495 273.306168,232.069383 C273.166206,232.080748 273.02385,232.084935 272.882692,232.084935 C270.360972,232.084935 267.912822,230.445458 265.599252,227.204187 C264.429308,225.565907 262.634916,223.628561 260.686804,223.628561 C260.657495,223.628561 260.628785,223.628561 260.600075,223.629159 C258.402542,223.693757 256.422131,226.170617 255.844336,227.119252 C255.436411,227.787364 254.475813,228.050542 253.697645,227.699439 C252.920075,227.349533 252.616224,226.523514 253.021159,225.852411 C253.139589,225.655626 255.977121,221.028486 260.478654,220.887327 C263.304822,220.800598 265.936,222.440075 268.309383,225.764486 C270.021234,228.164187 271.700785,229.441794 273.038206,229.335327 C274.690243,229.215103 276.236411,227.016972 276.725084,225.970841 C277.05585,225.268037 277.981757,224.927701 278.798206,225.211215 C279.61286,225.496523 280.00643,226.296224 279.678056,226.99843 L279.678056,226.99843 Z" id="sutrikes"></path>
        </g>
    </g>
</svg>